<svg width="42" height="43" viewBox="0 0 42 43" fill="none" xmlns="http://www.w3.org/2000/svg">
<circle cx="21" cy="21.1249" r="21" fill="#F1F1F5"/>
<path d="M22.121 15.4179C21.9335 15.6054 21.8282 15.8597 21.8282 16.1249C21.8282 16.3901 21.9335 16.6444 22.121 16.8319L25.413 20.1249L15 20.1319C14.7348 20.1319 14.4804 20.2373 14.2929 20.4248C14.1054 20.6123 14 20.8667 14 21.1319C14 21.3971 14.1054 21.6515 14.2929 21.839C14.4804 22.0266 14.7348 22.1319 15 22.1319L25.414 22.1249L22.121 25.4179C22.0255 25.5102 21.9493 25.6205 21.8969 25.7425C21.8445 25.8645 21.8169 25.9957 21.8157 26.1285C21.8146 26.2613 21.8399 26.393 21.8902 26.5159C21.9405 26.6388 22.0147 26.7504 22.1086 26.8443C22.2025 26.9382 22.3141 27.0125 22.437 27.0627C22.5599 27.113 22.6916 27.1383 22.8244 27.1372C22.9572 27.136 23.0884 27.1084 23.2104 27.056C23.3324 27.0036 23.4428 26.9274 23.535 26.8319L27.121 23.2469C27.3996 22.9683 27.6207 22.6376 27.7715 22.2736C27.9222 21.9096 27.9999 21.5194 27.9999 21.1254C27.9999 20.7314 27.9222 20.3413 27.7715 19.9772C27.6207 19.6132 27.3996 19.2825 27.121 19.0039L23.535 15.4179C23.3475 15.2304 23.0932 15.1251 22.828 15.1251C22.5628 15.1251 22.3085 15.2304 22.121 15.4179Z" fill="#595959"/>
</svg>
